<svg width="270" height="233" viewBox="0 0 270 233" fill="none" xmlns="http://www.w3.org/2000/svg">
<path d="M109.319 14.5248C120.988 -4.79737 149.012 -4.79731 160.68 14.5249L265.134 187.492C277.209 207.486 262.811 233 239.454 233H30.5461C7.18891 233 -7.20881 207.486 4.86556 187.492L109.319 14.5248Z" fill="black"/>
<path d="M147.913 72H121.027L123.444 159.119H145.556L147.913 72ZM134.5 198C142.233 198 148.94 191.5 149 183.419C148.94 175.461 142.233 168.96 134.5 168.96C126.525 168.96 119.94 175.461 120 183.419C119.94 191.5 126.525 198 134.5 198Z" fill="#FEF902"/>
</svg>
